<?xml version="1.0" standalone="no"?>
<!DOCTYPE svg PUBLIC "-//W3C//DTD SVG 20010904//EN"
 "http://www.w3.org/TR/2001/REC-SVG-20010904/DTD/svg10.dtd">
<svg version="1.0" xmlns="http://www.w3.org/2000/svg"
 width="320.000000pt" height="320.000000pt" viewBox="0 0 320.000000 320.000000"
 preserveAspectRatio="xMidYMid meet">
<metadata>
Created by potrace 1.14, written by Peter Selinger 2001-2017
</metadata>
<g transform="translate(0.000000,320.000000) scale(0.100000,-0.100000)"
fill="#000000" stroke="none">
<path d="M0 1600 l0 -1600 1600 0 1600 0 0 1600 0 1600 -1600 0 -1600 0 0
-1600z m1748 752 c21 -12 22 -17 22 -167 0 -85 -2 -155 -5 -155 -8 0 -409 232
-423 245 -17 16 19 40 108 72 56 20 80 23 170 20 59 -1 115 -8 128 -15z m115
-56 c65 -42 106 -85 150 -158 46 -77 65 -145 46 -162 -8 -8 -69 -45 -136 -84
l-123 -71 0 254 c0 140 2 255 5 255 3 0 29 -15 58 -34z m-426 -112 c73 -42
133 -78 133 -79 0 -5 -66 -45 -74 -45 -3 0 -6 14 -6 30 0 28 -2 30 -40 30
l-39 0 -3 -57 -3 -57 -134 -78 c-73 -43 -135 -78 -137 -78 -2 0 -4 26 -4 58 0
109 43 220 118 304 24 26 47 48 50 48 3 0 66 -34 139 -76z m33 -136 l5 -36 65
38 65 38 45 -26 c25 -14 62 -36 83 -49 l38 -24 -3 -61 c-2 -38 -8 -63 -15 -66
-10 -3 -13 13 -13 56 l0 60 -68 40 -69 39 -74 -43 c-41 -24 -77 -44 -81 -44
-5 0 -8 27 -8 61 0 44 3 60 13 57 6 -3 14 -21 17 -40z m-60 -328 c0 -139 -4
-250 -9 -250 -24 0 -137 89 -172 135 -44 58 -92 167 -87 197 2 14 42 43 128
93 69 40 128 74 133 74 4 1 7 -111 7 -249z m180 210 c0 -13 -7 -20 -20 -20
-13 0 -20 7 -20 20 0 13 7 20 20 20 13 0 20 -7 20 -20z m70 0 c0 -15 -7 -20
-25 -20 -18 0 -25 5 -25 20 0 15 7 20 25 20 18 0 25 -5 25 -20z m-190 -52 l1
-63 66 -38 67 -38 78 46 c42 25 80 45 83 45 3 0 5 -27 5 -60 0 -47 -3 -60 -15
-60 -10 0 -15 11 -15 35 0 19 -3 35 -6 35 -3 0 -33 -16 -66 -35 -33 -20 -64
-35 -68 -33 -3 2 -41 23 -83 47 l-77 45 0 61 c0 34 3 65 7 68 17 17 23 2 23
-55z m610 10 c0 -107 -50 -231 -125 -312 l-42 -46 -136 77 c-75 43 -137 81
-137 84 0 7 50 33 65 34 5 0 10 -9 10 -20 0 -16 8 -21 37 -23 l37 -3 3 52 3
53 135 78 c74 43 138 78 143 78 4 0 7 -24 7 -52z m-490 -23 c0 -18 -5 -25 -20
-25 -15 0 -20 7 -20 25 0 18 5 25 20 25 15 0 20 -7 20 -25z m70 0 c0 -20 -5
-25 -25 -25 -18 0 -25 5 -25 18 0 10 3 22 7 25 3 4 15 7 25 7 13 0 18 -7 18
-25z m23 -235 c108 -62 197 -116 197 -120 0 -13 -134 -68 -195 -80 -62 -13
-160 -8 -214 11 l-31 11 0 160 0 160 23 -14 c12 -8 111 -65 220 -128z m-283
-380 l0 -60 27 11 c34 13 80 2 93 -21 6 -10 10 -53 10 -95 l0 -76 -27 3 c-26
3 -27 6 -25 48 4 52 -11 100 -30 100 -33 -1 -43 -20 -45 -82 -1 -60 -3 -63
-27 -66 l-26 -3 0 150 0 151 25 0 c24 0 25 -3 25 -60z m1333 -87 l-1 -148 -26
-3 -26 -3 0 150 0 151 28 0 27 0 -2 -147z m-2043 119 c138 -69 85 -272 -71
-272 -87 0 -154 72 -146 157 11 104 121 163 217 115z m1067 -73 l32 -74 24 55
c13 30 27 65 31 76 4 14 17 23 36 26 17 3 32 3 34 1 4 -4 -117 -292 -124 -293
-8 0 -129 284 -124 292 2 3 16 3 31 -1 22 -6 34 -22 60 -82z m257 68 c9 -14 7
-21 -7 -32 -33 -24 -71 11 -46 42 15 18 39 13 53 -10z m-1069 -81 c15 -11 22
-11 44 0 34 18 52 17 79 -2 20 -14 22 -24 22 -100 0 -83 0 -84 -25 -84 -24 0
-25 3 -25 63 0 73 -9 92 -38 83 -18 -6 -22 -16 -24 -74 -3 -65 -4 -67 -30 -70
l-28 -3 0 71 c0 54 -4 72 -15 76 -30 12 -45 -15 -45 -83 0 -64 0 -64 -27 -61
l-28 3 -3 93 -3 93 40 -3 c22 -1 44 1 47 5 12 11 39 8 59 -7z m338 4 l38 1 -3
-93 -3 -93 -72 -3 c-67 -2 -73 0 -92 24 -15 19 -21 41 -21 74 0 42 4 52 32 75
24 20 38 25 57 20 14 -3 43 -6 64 -5z m898 -9 c24 -19 24 -20 4 -34 -14 -11
-23 -12 -37 -4 -9 6 -21 7 -25 3 -4 -5 -3 -11 4 -13 33 -12 78 -51 81 -70 8
-56 -94 -87 -139 -42 l-22 22 23 12 c19 10 26 10 38 -1 17 -18 42 -18 42 0 0
8 -10 16 -23 20 -29 7 -67 42 -67 62 0 23 46 64 73 64 14 0 35 -9 48 -19z
m436 9 l34 0 -3 -92 -3 -93 -72 -3 c-67 -2 -73 -1 -92 24 -15 19 -21 41 -21
74 0 42 4 52 32 75 24 21 38 25 61 21 16 -3 45 -6 64 -6z m-607 -95 c0 -95 0
-95 -25 -95 -25 0 -25 0 -25 95 0 95 0 95 25 95 25 0 25 0 25 -95z m290 25 l0
-70 29 0 c35 0 41 13 41 86 0 51 1 54 25 54 24 0 25 -2 25 -69 0 -93 -21 -121
-90 -121 -69 0 -90 28 -90 121 l0 69 30 0 30 0 0 -70z m-1404 -211 c3 -6 1
-16 -4 -21 -8 -8 -8 -17 -1 -30 13 -25 1 -23 -21 5 l-19 22 -10 -25 c-9 -23
-10 -21 -10 18 -1 40 0 42 28 42 17 0 33 -5 37 -11z m188 -33 c1 -20 -2 -36
-5 -36 -8 0 -17 52 -11 69 7 20 14 5 16 -33z m103 -18 c-2 -13 -4 -3 -4 22 0
25 2 35 4 23 2 -13 2 -33 0 -45z m102 46 c7 9 18 16 24 16 5 0 3 -8 -7 -19
-15 -16 -15 -19 -1 -31 8 -7 15 -18 15 -24 -1 -6 -9 0 -20 13 l-20 23 -9 -23
c-8 -20 -10 -17 -10 21 0 29 3 38 8 27 6 -17 8 -17 20 -3z m509 9 c-34 -5 -37
-23 -5 -24 l22 0 -22 -9 c-31 -13 -29 -28 5 -33 25 -4 25 -4 -5 -6 -32 -1 -33
0 -33 39 0 39 1 40 33 39 30 -2 30 -2 5 -6z m576 -37 c1 -20 -2 -36 -5 -36 -9
0 -20 60 -13 72 10 15 16 2 18 -36z m-1400 9 c4 -11 -1 -15 -19 -15 -14 0 -25
-5 -25 -11 0 -6 9 -9 20 -6 11 3 20 1 20 -4 0 -15 -40 -10 -46 6 -9 23 3 45
25 45 10 0 21 -7 25 -15z m74 -17 c2 -16 -1 -28 -7 -28 -6 0 -11 11 -11 25 0
14 -4 25 -10 25 -5 0 -10 -11 -10 -25 0 -14 -4 -25 -10 -25 -5 0 -10 14 -10
31 0 27 3 30 28 27 21 -2 28 -9 30 -30z m110 0 c3 -24 0 -28 -22 -28 -27 0
-43 15 -27 25 6 3 7 13 4 21 -4 12 0 15 18 12 18 -2 25 -10 27 -30z m232 2 c0
-25 -4 -30 -25 -30 -31 0 -33 23 -2 39 l22 12 -23 -5 c-12 -2 -20 0 -16 5 3 5
14 9 25 9 14 0 19 -7 19 -30z m109 -2 c-2 -32 -2 -32 -6 -5 -5 33 -29 31 -27
-1 1 -12 -3 -22 -7 -22 -5 0 -9 11 -9 25 0 34 -18 32 -23 -2 -4 -26 -4 -26 -6
5 -1 31 0 32 39 32 39 0 40 -1 39 -32z m75 17 c4 -11 -1 -15 -19 -15 -14 0
-25 -5 -25 -11 0 -6 9 -9 20 -6 11 3 20 1 20 -4 0 -15 -40 -10 -46 6 -9 23 3
45 25 45 10 0 21 -7 25 -15z m49 8 c-7 -2 -13 -16 -13 -29 0 -13 -4 -24 -10
-24 -11 0 -14 43 -3 53 3 4 13 7 22 6 10 0 12 -2 4 -6z m71 -9 c13 -33 6 -44
-24 -44 -36 0 -40 22 -7 39 l22 11 -24 -6 c-16 -4 -21 -3 -17 5 11 16 43 13
50 -5z m198 4 c2 -7 1 -29 -3 -48 -3 -19 -7 -27 -8 -17 0 9 -6 16 -12 15 -16
-4 -33 27 -26 46 7 19 43 22 49 4z m51 -35 c6 2 14 14 18 28 6 21 7 21 8 -8 1
-29 -2 -33 -24 -33 -22 0 -25 4 -24 33 2 31 2 31 6 4 3 -16 10 -26 16 -24z
m54 0 c-3 -10 -5 -2 -5 17 0 19 2 27 5 18 2 -10 2 -26 0 -35z m81 19 c3 -17
-2 -25 -17 -29 -12 -3 -21 -12 -21 -20 0 -29 -17 -2 -18 29 -1 41 5 50 31 46
14 -2 23 -11 25 -26z m104 -2 c3 -16 1 -30 -4 -30 -4 0 -8 11 -8 25 0 14 -4
25 -10 25 -5 0 -10 -11 -10 -25 0 -14 -4 -25 -10 -25 -5 0 -10 11 -10 25 0 34
-18 32 -23 -2 -4 -26 -4 -26 -6 5 -1 31 0 32 38 32 35 0 39 -3 43 -30z m74 19
c7 -12 -15 -31 -28 -23 -4 3 -8 0 -8 -7 0 -6 8 -9 20 -6 11 3 20 1 20 -4 0 -5
-11 -9 -24 -9 -25 0 -43 30 -31 50 8 13 42 13 51 -1z m73 -21 c-2 -31 -2 -31
-6 -5 -2 15 -10 27 -18 27 -8 0 -16 -12 -18 -27 -4 -26 -4 -26 -6 5 -1 28 2
32 24 32 22 0 25 -4 24 -32z"/>
<path d="M590 1238 c-27 -9 -60 -54 -60 -83 0 -47 51 -95 101 -95 30 0 79 53
79 85 0 21 -25 85 -33 85 -1 0 -16 4 -32 8 -17 5 -41 5 -55 0z"/>
<path d="M1195 1140 c-15 -16 -17 -26 -9 -48 10 -30 51 -43 65 -20 16 24 10
67 -10 78 -26 13 -25 13 -46 -10z"/>
<path d="M2530 1140 c-23 -23 -24 -33 -10 -61 13 -23 55 -25 64 -3 22 56 -16
102 -54 64z"/>
<path d="M840 910 c0 -5 9 -10 20 -10 11 0 20 5 20 10 0 6 -9 10 -20 10 -11 0
-20 -4 -20 -10z"/>
<path d="M938 893 c7 -3 16 -2 19 1 4 3 -2 6 -13 5 -11 0 -14 -3 -6 -6z"/>
<path d="M1128 893 c7 -3 16 -2 19 1 4 3 -2 6 -13 5 -11 0 -14 -3 -6 -6z"/>
<path d="M1125 870 c-3 -5 -1 -10 4 -10 6 0 11 5 11 10 0 6 -2 10 -4 10 -3 0
-8 -4 -11 -10z"/>
<path d="M1360 870 c-13 -8 -12 -10 3 -10 9 0 17 5 17 10 0 12 -1 12 -20 0z"/>
<path d="M1538 893 c7 -3 16 -2 19 1 4 3 -2 6 -13 5 -11 0 -14 -3 -6 -6z"/>
<path d="M1660 870 c-13 -8 -12 -10 3 -10 9 0 17 5 17 10 0 12 -1 12 -20 0z"/>
<path d="M1855 890 c-7 -12 2 -30 16 -30 5 0 9 9 9 20 0 21 -15 27 -25 10z"/>
<path d="M2040 880 c0 -13 5 -20 13 -17 6 2 12 10 12 17 0 7 -6 15 -12 18 -8
2 -13 -5 -13 -18z"/>
<path d="M2228 893 c7 -3 16 -2 19 1 4 3 -2 6 -13 5 -11 0 -14 -3 -6 -6z"/>
</g>
</svg>
